<?xml version="1.0" encoding="UTF-8"?>
<svg xmlns="http://www.w3.org/2000/svg" width="63.104" height="90.029" viewBox="0 0 63.104 90.029">
<g transform="translate(-628.392 -323.352)" fill="#111111" fill-rule="evenodd" stroke="none">
<path d="M 679.401 328.203 C 676.891 329.561 673.997 330.243 671.286 330.113 C 666.28 329.874 662.615 331.591 658.403 336.148 C 656.699 337.992 653.243 341.407 650.724 343.738 C 648.204 346.07 645.844 348.915 645.481 350.061 C 645.105 351.243 644.246 351.924 643.492 351.635 C 641.815 350.992 640.898 353.229 642.077 355.091 C 643.573 357.453 643.121 358.068 640.392 357.384 C 637.951 356.771 637.861 356.871 638.972 358.948 C 639.93 360.738 639.868 361.489 638.649 362.835 C 636.455 365.26 634.777 370.177 635.796 371.196 C 637.058 372.458 639.724 371.163 640.286 369.015 C 640.551 368 640.258 366.65 639.634 366.017 C 638.787 365.157 638.895 364.566 640.062 363.683 C 640.921 363.032 641.919 361.712 642.281 360.75 C 642.642 359.788 643.342 359 643.838 359 C 645.245 359 645.733 364.558 645.355 376.272 C 644.998 387.372 643.383 393.532 640.545 394.621 C 639.695 394.947 639 395.903 639 396.744 C 639 397.623 640.268 396.68 641.974 394.532 C 644.881 390.875 645.25 389.667 646.539 379.603 C 646.884 376.91 647.634 373.958 648.205 373.043 C 648.908 371.918 648.925 369.889 648.259 366.764 C 647.318 362.355 647.382 362.121 649.683 361.543 C 651.008 361.211 652.591 361.247 653.2 361.624 C 653.848 362.024 654.029 361.855 653.635 361.218 C 652.799 359.865 647.169 357 645.346 357 C 643.481 357 643.65 354.071 645.557 353.34 C 646.414 353.011 646.884 352.139 646.601 351.403 C 646.038 349.934 647.652 348.568 650 348.526 C 650.825 348.512 651.504 347.685 651.508 346.688 C 651.516 344.944 655.494 340 656.889 340 C 657.263 340 658.334 338.704 659.269 337.121 C 661.558 333.248 666.901 330.848 672.436 331.209 C 675.253 331.393 676.548 331.85 675.949 332.45 C 675.427 332.972 675 334.705 675 336.3 C 675 338.292 673.955 340.186 671.66 342.35 C 666.64 347.084 658.966 351.423 655.542 351.464 C 653.21 351.492 652.569 351.908 652.794 353.25 C 653.073 354.911 652.049 355.438 649.25 355.075 C 648.563 354.985 648 355.438 648 356.081 C 648 358.775 655.951 355.352 664 349.194 C 665.375 348.142 667.493 346.969 668.706 346.587 C 671.808 345.611 676 340.317 676 337.376 C 676 334.888 680.272 330 682.446 330 C 684.866 330 685.851 332.129 684.811 335.111 C 683.576 338.656 675.938 345.551 672.225 346.472 C 669.324 347.192 665 350.697 665 352.329 C 665 352.869 665.788 352.596 666.752 351.724 C 667.716 350.852 671.428 348.812 675.002 347.191 C 682.668 343.713 686.862 339.624 687.633 334.876 C 688.113 331.919 687.83 331.247 685.604 330.055 C 683.547 328.955 682.452 328.913 680.259 329.852 C 677.702 330.946 677.642 330.922 679.441 329.516 C 681.662 327.781 684.592 327.532 685.5 329 C 685.84 329.55 686.568 330 687.118 330 C 688.496 330 687.272 328.216 685.095 327.051 C 683.79 326.352 682.238 326.666 679.401 328.203 L 679.401 328.203 Z M 637.079 367.583 C 637.127 368.748 637.364 368.985 637.683 368.188 C 637.972 367.466 637.936 366.603 637.604 366.271 C 637.272 365.939 637.036 366.529 637.079 367.583 L 637.079 367.583 Z M 647 369.5 C 647 369.775 647.225 370 647.5 370 C 647.775 370 648 369.775 648 369.5 C 648 369.225 647.775 369 647.5 369 C 647.225 369 647 369.225 647 369.5 L 647 369.5 Z M 635 374.5 C 634.984 375.6 634.321 378.3 633.529 380.5 C 631.51 386.103 631.665 390.305 634 393.273 C 636.539 396.501 636.539 400.666 634 404.5 C 631.747 407.901 631.392 410.381 633.25 409.726 C 633.938 409.483 634.438 408.551 634.363 407.653 C 634.288 406.756 634.634 406.274 635.134 406.583 C 635.633 406.891 636.707 405.551 637.521 403.604 C 639.201 399.584 639.442 397.769 638 400 C 637.267 401.134 637.027 400.684 637.015 398.158 C 637.007 396.319 636.1 393.671 635 392.273 C 632.521 389.121 632.503 387.363 634.883 380.594 C 636.047 377.28 636.434 374.716 635.898 373.869 C 635.239 372.829 635.023 372.981 635 374.5 L 635 374.5 Z"/>
</g>
</svg>
