<?xml version="1.0" encoding="UTF-8"?>
<svg xmlns="http://www.w3.org/2000/svg" width="147.791" height="114.781" viewBox="0 0 147.791 114.781">
<g transform="translate(-639.02 -68.055)" fill="#111111" fill-rule="evenodd" stroke="none">
<path d="M 723.775 72.567 C 719.542 74.852 718.777 77.14 720.874 81.253 L 722.673 84.781 L 716.989 90.346 C 713.408 93.853 710.636 97.665 709.494 100.655 C 708.498 103.264 706.191 107.352 704.369 109.74 C 702.546 112.127 700.549 115.975 699.93 118.29 C 698.526 123.541 695.468 130.063 689.022 141.555 C 685.217 148.339 684.004 151.515 684.002 154.703 C 683.999 160.986 682.227 163.849 676.551 166.744 C 672.381 168.871 670.105 169.323 663.5 169.334 C 659.1 169.342 653.813 169.024 651.75 168.629 C 649.549 168.207 648 168.301 648 168.857 C 648 170.371 653.866 172 659.316 172 C 665.777 172 664.895 172.993 658.303 173.142 C 652.428 173.274 646 171.395 646 169.545 C 646 166.635 648.931 165.914 661.154 165.82 C 671.294 165.742 672.875 165.542 670 164.701 C 663.743 162.87 651.126 162.97 647.712 164.878 C 642.649 167.706 642.02 169.747 645.378 172.457 C 650.505 176.594 660.744 177.114 673.276 173.874 C 677.799 172.705 682.388 171.13 683.473 170.374 C 686.627 168.177 689.872 168.642 690.562 171.39 C 690.892 172.705 692.431 174.997 693.983 176.483 C 696.383 178.783 697.854 179.245 703.849 179.584 C 708.312 179.836 711.143 179.578 711.574 178.88 C 712.477 177.419 707.089 173.082 704.315 173.036 C 700.821 172.978 697 171.175 697 169.584 C 697 167.877 697.528 167.509 701.25 166.619 C 703.535 166.073 704 166.292 704 167.913 C 704 170.882 708.915 173.753 716.161 175.014 C 724.17 176.409 729.5 176.032 729.5 174.072 C 729.5 172.29 725.119 170.948 718.162 170.601 C 712.433 170.314 709.852 168.389 712.519 166.39 C 713.333 165.779 714 164.855 714 164.336 C 714 163.817 715.614 161.842 717.588 159.946 C 722.443 155.282 724.958 150.071 727.118 140.2 C 728.117 135.635 729.737 130.684 730.717 129.196 C 735.597 121.792 738.989 115.509 739.033 113.79 C 739.067 112.469 742.398 108 743.349 108 C 743.639 108 745.355 109.35 747.161 111 C 750.574 114.117 752 114.707 752 113 C 752 112.45 752.942 112 754.094 112 C 755.346 112 756.397 111.197 756.71 110 C 756.998 108.9 757.808 108 758.51 108 C 759.574 108 761 105.957 761 104.432 C 761 104.209 759.313 103.313 757.25 102.441 C 754.456 101.258 752.699 101.095 750.355 101.801 C 746.764 102.883 744.097 101.94 746.203 100.334 C 750.245 97.251 757.255 94 759.862 94 C 762.373 94 762.936 94.452 763.284 96.75 L 763.7 99.5 L 763.854 96.5 L 764.007 93.5 L 766.058 96.863 C 767.185 98.712 768.381 99.953 768.714 99.619 C 769.048 99.285 768.642 98.222 767.813 97.256 C 765.545 94.616 764.802 91.987 766.51 92.642 C 767.284 92.939 769.605 96.066 771.667 99.591 C 773.728 103.116 775.791 106 776.25 106 C 776.988 106 772.452 97.281 771.048 96 C 770.269 95.289 767 89.31 767 88.596 C 767 86.989 770.949 88.334 774.272 91.073 C 778.537 94.588 779.327 94.134 775.354 90.452 C 771.9 87.252 773.701 87.308 778.478 90.549 C 780.544 91.952 782.519 92.815 782.866 92.468 C 783.811 91.522 780.1 89.122 774.75 87.22 C 769.177 85.238 768.766 84.28 773.25 83.723 C 776.438 83.328 776.429 83.317 772.736 83.16 C 770.666 83.072 768.191 82.573 767.236 82.051 C 762.65 79.545 752.892 75.775 752.362 76.304 C 752.034 76.632 755.194 78.597 759.383 80.67 C 767.766 84.818 769.641 87.872 763.325 87.092 C 762.679 87.012 761.526 87.839 760.762 88.929 C 759.999 90.019 757.378 91.846 754.937 92.989 C 749.537 95.519 746.771 97.116 744.453 99.039 C 743.485 99.842 741.77 100.344 740.643 100.153 C 738.929 99.862 738.796 100.049 739.83 101.295 C 740.998 102.703 742.843 103.614 749.231 105.941 C 751.089 106.618 751.774 107.425 751.374 108.468 C 750.589 110.515 749.322 110.399 746.273 108 C 742.717 105.203 739.005 105.33 738.983 108.25 C 738.966 110.548 736.535 115.535 729.58 127.537 C 726.825 132.291 725.271 136.536 724.352 141.818 C 722.962 149.811 719.961 155.479 714.836 159.792 C 712.074 162.115 709 166.86 709 168.798 C 709 169.291 710.013 170.183 711.25 170.78 C 713.441 171.836 713.445 171.866 711.405 171.932 C 709.539 171.993 706 169.268 706 167.771 C 706 167.457 707.575 165.625 709.5 163.7 C 711.425 161.775 713 159.617 713 158.904 C 713 158.191 711.525 159.037 709.723 160.784 C 707.873 162.577 704.932 164.216 702.973 164.546 C 695.005 165.89 695 165.892 695 168.993 C 695 171.266 695.693 172.307 698 173.5 C 701.519 175.32 701.99 177.055 698.75 176.262 C 695.417 175.446 693.881 173.946 691.827 169.5 C 690.811 167.3 688.935 164.652 687.658 163.615 C 685.374 161.762 685.357 161.606 686.629 154.29 C 687.492 149.326 688.929 145.295 690.946 142.175 C 694.606 136.516 700.753 123.874 701.641 120.18 C 702.332 117.304 706.741 108.825 707.974 108 C 709.16 107.206 712 101.253 712 99.561 C 712 98.714 714.421 95.655 717.381 92.761 C 722.577 87.681 722.954 87.5 728.359 87.5 C 731.438 87.5 733.854 87.071 733.728 86.547 C 733.603 86.022 732.136 85.711 730.47 85.854 C 726.399 86.205 722.851 83.05 722.653 78.905 C 722.569 77.149 723.027 75.527 723.671 75.299 C 724.399 75.042 724.654 75.609 724.343 76.796 C 724.039 77.96 724.838 79.838 726.39 81.603 C 728.385 83.873 728.944 84.123 728.968 82.758 C 728.986 81.801 728.145 80.483 727.1 79.83 C 724.822 78.407 725.455 76 728.107 76 C 729.148 76 730 75.498 730 74.885 C 730 74.217 731.044 74.454 732.607 75.478 C 734.387 76.644 735.539 76.861 736.238 76.162 C 736.938 75.462 736.163 74.677 733.794 73.687 C 727.83 71.195 726.578 71.055 723.775 72.567 L 723.775 72.567 Z M 738.667 73.667 C 737.191 75.142 738.287 75.504 744.502 75.593 C 750.999 75.686 752.989 74.766 748.75 73.63 C 745.719 72.818 739.493 72.841 738.667 73.667 L 738.667 73.667 Z M 748 79.3 C 748 81.464 749.962 82.73 752.551 82.235 C 755.46 81.679 755.586 81.165 753.25 79.392 C 750.994 77.68 748 77.627 748 79.3 L 748 79.3 Z M 764.272 106 C 764.272 108.475 764.467 109.487 764.706 108.25 C 764.944 107.013 764.944 104.987 764.706 103.75 C 764.467 102.513 764.272 103.525 764.272 106 L 764.272 106 Z M 752 103.965 C 752 104.495 752.9 105.411 754 106 C 755.566 106.838 756 106.76 756 105.642 C 756 104.857 755.288 103.941 754.418 103.607 C 752.294 102.792 752 102.835 752 103.965 L 752 103.965 Z M 764 152.941 C 764 153.459 764.503 154.193 765.118 154.573 C 767.773 156.214 782 159.078 782 157.972 C 782 157.58 779.188 156.716 775.75 156.052 C 772.313 155.387 768.503 154.204 767.285 153.422 C 764.69 151.756 764 151.655 764 152.941 L 764 152.941 Z M 771.053 152.97 C 773.47 154.385 783 155.418 783 154.265 C 783 153.319 776.102 151.966 771.61 152.03 C 769.868 152.056 769.771 152.219 771.053 152.97 L 771.053 152.97 Z M 680.093 167.574 C 677.669 168.908 674.658 170 673.402 170 C 672.146 170 670.81 170.498 670.434 171.107 C 668.908 173.576 682.043 169.715 684.534 166.962 C 686.852 164.402 685.525 164.584 680.093 167.574 L 680.093 167.574 Z M 717 173 C 718.996 174.29 724.297 174.29 723.5 173 C 723.16 172.45 721.221 172.007 719.191 172.015 C 716.44 172.027 715.882 172.277 717 173 L 717 173 Z"/>
</g>
</svg>
