<?xml version="1.0" encoding="UTF-8"?>
<svg xmlns="http://www.w3.org/2000/svg" width="57.492" height="97.161" viewBox="0 0 57.492 97.161">
<g transform="translate(-23.533 -344)" fill="currentColor" fill-rule="evenodd" stroke="none">
<path d="M 40 347.5 C 40 347.775 40.225 348 40.5 348 C 40.775 348 41 347.775 41 347.5 C 41 347.225 40.775 347 40.5 347 C 40.225 347 40 347.225 40 347.5 L 40 347.5 Z M 42.51 349.015 C 43.101 349.972 42.875 350.166 41.696 349.714 C 40.798 349.369 39.794 349.525 39.463 350.06 C 39.132 350.595 38.43 350.766 37.903 350.44 C 37.375 350.114 35.494 349.677 33.722 349.468 C 30.652 349.107 30.608 349.149 32.781 350.347 C 34.036 351.038 34.749 351.918 34.365 352.302 C 33.981 352.686 34.192 353 34.833 353 C 36.677 353 36.197 355.412 33.852 357.928 C 31.861 360.065 31.777 360.718 32.703 366.867 C 33.281 370.704 33.343 374.762 32.851 376.493 C 30.718 383.997 32.67 392.683 37.01 395.006 C 39.456 396.314 39.749 403.271 37.578 408.467 C 36.358 411.387 35.613 411.915 32.328 412.185 C 29.175 412.444 28.441 412.917 28.165 414.865 C 27.981 416.166 28.319 417.719 28.915 418.315 C 29.695 419.095 30 418.657 30 416.759 C 30 415.306 30.45 413.84 31 413.5 C 31.565 413.151 32 413.97 32 415.382 C 32 416.757 32.45 418.16 33 418.5 C 33.565 418.849 34 418.03 34 416.618 C 34 415.243 34.516 413.799 35.146 413.41 C 35.966 412.903 36.077 413.526 35.537 415.601 C 35.122 417.195 34.85 421.633 34.933 425.462 C 35.074 431.991 35.283 432.591 38.292 435.114 C 41.613 437.899 43.209 438.161 41.056 435.568 C 39.304 433.456 40.726 431.583 42.633 433.49 C 44.734 435.592 48 433.731 48 430.433 C 48 427.614 45.516 426.185 43.179 427.659 C 42.155 428.305 40.845 428.274 39.322 427.568 C 36.908 426.45 36.432 423.255 37.896 418 C 38.505 415.814 38.68 415.728 39.292 417.32 C 40.143 419.535 43.833 419.238 45.34 416.834 C 46.655 414.735 44.635 412 41.771 412 C 40.283 412 39.96 411.562 40.479 410.25 C 40.86 409.288 41.633 406.025 42.197 403 C 42.761 399.975 43.63 396.825 44.13 396 C 44.629 395.175 45.627 393.241 46.348 391.703 L 47.659 388.906 L 51.914 393.522 C 56.089 398.052 56.156 398.236 55.468 403.319 C 55.083 406.169 54.37 408.65 53.884 408.833 C 53.398 409.017 53 409.606 53 410.142 C 53 410.679 53.45 410.84 54 410.5 C 55.017 409.872 55.105 410.196 55.357 415.5 C 55.436 417.15 55.95 418.415 56.5 418.311 C 57.05 418.206 58.484 419.046 59.688 420.176 C 60.926 421.34 63.776 422.446 66.255 422.725 C 69.864 423.132 71.099 422.804 73.279 420.859 C 76.103 418.341 78.025 413 76.108 413 C 75.499 413 75 413.867 75 414.927 C 75 416.63 70.76 421 69.108 421 C 68.766 421 68.647 418.975 68.843 416.5 C 69.195 412.082 69.147 412 66.184 412 C 64.524 412 62.904 412.563 62.583 413.25 C 62.117 414.25 61.883 414.25 61.417 413.25 C 61.096 412.563 60.226 412 59.484 412 C 57.453 412 56.758 408.532 57.938 404.284 C 58.516 402.203 58.991 399.42 58.994 398.1 C 58.997 396.779 60.2 393.247 61.667 390.249 L 64.333 384.799 L 62.607 378.144 C 61.658 374.484 60.855 369.591 60.823 367.27 C 60.791 364.949 60.143 362.533 59.382 361.902 C 58.622 361.271 58 359.937 58 358.937 C 58 357.936 57.516 356.819 56.925 356.454 C 56.237 356.028 56.66 354.927 58.099 353.395 C 59.336 352.078 59.99 351 59.552 351 C 59.114 351 59.373 350.239 60.128 349.308 C 61.311 347.85 61.293 347.733 60 348.46 C 59.175 348.924 57.729 349.965 56.787 350.773 C 55.845 351.581 54.454 352.005 53.697 351.714 C 52.939 351.423 51.706 351.564 50.957 352.027 C 49.061 353.198 47.669 352.104 49.006 350.493 C 49.877 349.443 49.605 349.22 47.709 349.428 C 46.389 349.573 44.72 350.055 44 350.5 C 43.164 351.017 42.933 350.917 43.362 350.224 C 43.731 349.627 43.506 348.813 42.862 348.415 C 42.077 347.93 41.961 348.128 42.51 349.015 L 42.51 349.015 Z M 39.029 351.961 C 38.22 352.473 37.887 353.22 38.288 353.621 C 38.69 354.023 38.099 355.33 36.976 356.526 C 35.16 358.458 35.104 358.841 36.467 359.972 C 38.534 361.688 38.409 365.671 36.25 366.881 C 35.093 367.53 34.468 369.156 34.406 371.681 C 34.354 373.782 33.96 377.606 33.53 380.179 C 32.52 386.219 33.313 389.148 37.137 393.503 C 39.986 396.749 40.199 397.476 39.705 402.271 C 39.409 405.147 38.879 408.625 38.528 410 C 38.142 411.512 38.525 411.122 39.497 409.012 C 40.38 407.094 41.379 403.494 41.716 401.012 C 42.053 398.53 43.267 395.217 44.414 393.648 C 46.272 391.108 46.478 389.557 46.302 379.443 C 46.15 370.697 45.714 367.494 44.407 365.499 C 42.995 363.343 42.918 362.522 43.95 360.593 C 44.827 358.955 44.891 357.724 44.168 356.388 C 43.606 355.35 42.902 353.712 42.604 352.75 C 41.996 350.785 41.175 350.604 39.029 351.961 L 39.029 351.961 Z M 45.333 353.667 C 45.7 354.033 46.3 354.033 46.667 353.667 C 47.033 353.3 46.733 353 46 353 C 45.267 353 44.967 353.3 45.333 353.667 L 45.333 353.667 Z M 50.59 353.854 C 50.262 354.385 50.251 355.49 50.565 356.309 C 50.879 357.128 50.656 358.095 50.068 358.458 C 48.595 359.368 48.723 362.74 50.25 363.255 C 51.222 363.583 51.166 364.436 50 367.089 C 48.867 369.664 48.622 372.885 49 380.236 L 49.5 389.971 L 53.183 393.003 C 55.208 394.67 57.067 397.039 57.314 398.267 C 57.631 399.85 57.75 399.626 57.721 397.5 C 57.699 395.85 58.709 392.792 59.966 390.705 C 62.352 386.742 62.348 387.007 60.209 373.464 C 59.771 370.695 58.658 367.349 57.734 366.03 C 56.729 364.596 56.287 362.705 56.633 361.325 C 57.034 359.729 56.705 358.824 55.564 358.386 C 54.598 358.016 54.037 356.884 54.208 355.652 C 54.513 353.452 51.702 352.056 50.59 353.854 L 50.59 353.854 Z M 28.713 356.909 C 26.775 360.19 26.533 361.406 28 360.5 C 28.622 360.115 29.006 362.076 29.015 365.691 C 29.024 368.886 29.477 372.175 30.022 373 C 30.702 374.029 30.812 372.706 30.372 368.781 C 29.963 365.122 30.173 361.996 30.957 360.104 C 31.709 358.288 31.843 356.542 31.304 355.578 C 30.572 354.27 30.141 354.491 28.713 356.909 L 28.713 356.909 Z M 46 356.941 C 46 359.895 47.707 360.311 48.247 357.488 C 48.565 355.823 48.272 355 47.361 355 C 46.613 355 46 355.873 46 356.941 L 46 356.941 Z M 30 358 C 30 358.733 30.3 359.033 30.667 358.667 C 31.033 358.3 31.033 357.7 30.667 357.333 C 30.3 356.967 30 357.267 30 358 L 30 358 Z M 34.195 362.5 C 34.215 364.15 34.439 364.704 34.693 363.731 C 34.947 362.758 34.93 361.408 34.656 360.731 C 34.382 360.054 34.175 360.85 34.195 362.5 L 34.195 362.5 Z M 46.079 362.583 C 46.127 363.748 46.364 363.985 46.683 363.188 C 46.972 362.466 46.936 361.603 46.604 361.271 C 46.272 360.939 46.036 361.529 46.079 362.583 L 46.079 362.583 Z M 36 364.5 C 36 364.775 36.225 365 36.5 365 C 36.775 365 37 364.775 37 364.5 C 37 364.225 36.775 364 36.5 364 C 36.225 364 36 364.225 36 364.5 L 36 364.5 Z"/>
</g>
</svg>
